/* XPM */
static char *bitcoin16_xpm[] = {
/* width height num_colors chars_per_pixel */
"    16    16      256            2",
/* colors */
"`` c #ffffff",
"`. c #d8d1e5",
"`# c #a695c4",
"`a c #836cac",
"`b c #775da3",
"`c c #765da4",
"`d c #826cac",
"`e c #a496c4",
"`f c #d7d1e5",
"`g c #a594c3",
"`h c #6d519e",
"`i c #6b4f9c",
"`j c #674b9a",
"`k c #5f4496",
"`l c #5d4496",
"`m c #604a99",
"`n c #624e9d",
"`o c #65529f",
"`p c #9f93c3",
"`q c #8f7ab4",
"`r c #755ba2",
"`s c #53358d",
"`t c #452786",
"`u c #614898",
"`v c #5b4496",
"`w c #564195",
"`x c #4f3d93",
"`y c #534396",
"`z c #61549f",
"`A c #827ab4",
"`B c #a392c2",
"`C c #7157a0",
"`D c #412183",
"`E c #b1a3cc",
"`F c #8e80b6",
"`G c #2d127b",
"`H c #5c4799",
"`I c #402d8a",
"`J c #574a99",
"`K c #3e328d",
"`L c #40368f",
"`M c #5f57a1",
"`N c #9591c1",
"`O c #ded9e9",
"`P c #6c549e",
"`Q c #5e4697",
"`R c #402686",
"`S c #7f72ae",
"`T c #7769aa",
"`U c #29167d",
"`V c #7167aa",
"`W c #493d95",
"`X c #4a4095",
"`Y c #5a539e",
"`Z c #433d94",
"`0 c #464197",
"`1 c #54529e",
"`2 c #d8d8ea",
"`3 c #9e90c1",
"`4 c #654f9c",
"`5 c #523c91",
"`6 c #544196",
"`7 c #8076b0",
"`8 c #7671a6",
".` c #f4f5f7",
".. c #9791c0",
".# c #e6e6ed",
".a c #66609f",
".b c #0e0676",
".c c #cdcbe3",
".d c #ababcb",
".e c #18177d",
".f c #50509f",
".g c #8e8dc1",
".h c #7968aa",
".i c #5d499a",
".j c #4b3890",
".k c #44348d",
".l c #d5d4e6",
".m c #514e90",
".n c #eff0f4",
".o c #2c2978",
".p c #120f7e",
".q c #e8e8f4",
".r c #a8a8c1",
".s c #161479",
".t c #4c499d",
".u c #6663a9",
".v c #6b5ca4",
".w c #544497",
".x c #3e308b",
".y c #5b519f",
".z c #efeff3",
".A c #c2c1d2",
".B c #cdcddf",
".C c #595895",
".D c #d5d5e3",
".E c #9695c1",
".F c #050475",
".G c #f1f0f7",
".H c #706ea1",
".I c #211d82",
".J c #423e97",
".K c #5953a3",
".L c #685ca4",
".M c #514697",
".N c #322787",
".O c #6e69ad",
".P c #fafbf8",
".Q c #121069",
".R c #8b8abf",
".S c #dbdbe8",
".T c #575794",
".U c #c7c7dc",
".V c #c2c2dc",
".W c #eeeef2",
".X c #4f4b90",
".Y c #28228a",
".Z c #403b97",
".0 c #5852a2",
".1 c #7068aa",
".2 c #534c9b",
".3 c #211b80",
".4 c #9c9ac9",
".5 c #ededeb",
".6 c #1a1977",
".7 c #26258b",
".8 c #f8f9f9",
"#` c #4e4d92",
"#. c #cfcfe0",
"## c #332e83",
"#a c #302890",
"#b c #453e98",
"#c c #635ca9",
"#d c #928fc1",
"#e c #524f9d",
"#f c #1b1980",
"#g c #a3a3cf",
"#h c #d0d0d7",
"#i c #08056d",
"#j c #5653a7",
"#k c #ecedef",
"#l c #8e8cb2",
"#m c #f9f8fb",
"#n c #7473ac",
"#o c #7472a3",
"#p c #3c358b",
"#q c #352c93",
"#r c #48409a",
"#s c #8b86c0",
"#t c #d9d8e9",
"#u c #52519e",
"#v c #413f97",
"#w c #3c3994",
"#x c #504e91",
"#y c #3b378d",
"#z c #393396",
"#A c #6461a1",
"#B c #120b70",
"#C c #5c57a5",
"#D c #6f6ba6",
"#E c #190e7d",
"#F c #3e3597",
"#G c #4b429d",
"#H c #d7d5e9",
"#I c #918ec1",
"#J c #5451a0",
"#K c #34308e",
"#L c #2d288c",
"#M c #453f99",
"#N c #403997",
"#O c #261e87",
"#P c #403996",
"#Q c #0e047b",
"#R c #746fb2",
"#S c #9f9bbd",
"#T c #15097a",
"#U c #4f44a0",
"#V c #8c85c0",
"#W c #7772b3",
"#X c #504b9f",
"#Y c #3f3896",
"#Z c #373092",
"#0 c #3a3392",
"#1 c #3e3695",
"#2 c #3c3495",
"#3 c #403697",
"#4 c #1d1085",
"#5 c #2a1e83",
"#6 c #50479e",
"#7 c #7269b2",
"#8 c #918cc1",
"a` c #4d459d",
"a. c #433a97",
"a# c #3c3294",
"aa c #3b3194",
"ab c #413697",
"ac c #463b9a",
"ad c #473c9d",
"ae c #8e87c1",
"af c #d0cde5",
"ag c #918bc3",
"ah c #655cab",
"ai c #554aa2",
"aj c #5449a1",
"ak c #635aaa",
"al c #8f88c2",
"am c #cfcce4",
"an c #000000",
"ao c #000000",
"ap c #000000",
"aq c #000000",
"ar c #000000",
"as c #000000",
"at c #000000",
"au c #000000",
"av c #000000",
"aw c #000000",
"ax c #000000",
"ay c #000000",
"az c #000000",
"aA c #000000",
"aB c #000000",
"aC c #000000",
"aD c #000000",
"aE c #000000",
"aF c #000000",
"aG c #000000",
"aH c #000000",
"aI c #000000",
"aJ c #000000",
"aK c #000000",
"aL c #000000",
"aM c #000000",
"aN c #000000",
"aO c #000000",
"aP c #000000",
"aQ c #000000",
"aR c #000000",
"aS c #000000",
"aT c #000000",
"aU c #000000",
"aV c #000000",
"aW c #000000",
"aX c #000000",
"aY c #000000",
"aZ c #000000",
"a0 c #000000",
"a1 c #000000",
"a2 c #000000",
"a3 c #000000",
"a4 c #000000",
"a5 c #000000",
"a6 c #000000",
"a7 c #000000",
"a8 c #000000",
/* pixels */
"`````````.`#`a`b`c`d`e`f````````",
"```````g`h`i`j`k`l`m`n`o`p``````",
"`````q`r`s`t`u`v`v`w`x`y`z`A````",
"```B`C`D`E`F`G`H`I`y`J`K`L`M`N``",
"`O`P`Q`R`S```T`U`V`W`X`Y`Z`0`1`2",
"`3`4`5`6`7`8.`...#.a.b.c.d.e.f.g",
".h.i.j.k``.l.m.n``.o.p.q.r.s.t.u",
".v.w.x.y.z.A.B.C.D.E.F.G.H.I.J.K",
".L.M.N.O.P.Q.R.S.T.U.V.W.X.Y.Z.0",
".1.2.3.4.5.6.7``.8#`#.``###a#b#c",
"#d#e#f#g#h#i#j#k#l#m#n#o#p#q#r#s",
"#t#u#v#w#x#y#z#A#B#C``#D#E#F#G#H",
"``#I#J#K#L#M#N#O#P#Q#R#S#T#U#V``",
"````#W#X#Y#Z#0#1#2#3#4#5#6#7````",
"``````#8a`#ra.a#aaabacadae``````",
"````````afagahaiajakalam````````"
};
