/* XPM */
static char *bitcoin32_xpm[] = {
/* width height num_colors chars_per_pixel */
"    32    32      256            2",
/* colors */
"`` c #04025c",
"`. c #8482bc",
"`# c #4c4284",
"`a c #24266c",
"`b c #6462a4",
"`c c #c4c2d4",
"`d c #442a84",
"`e c #644694",
"`f c #34326c",
"`g c #54569c",
"`h c #241a7c",
"`i c #a4a2bc",
"`j c #7472a4",
"`k c #e4e2e4",
"`l c #544294",
"`m c #14126c",
"`n c #44368c",
"`o c #342684",
"`p c #54368c",
"`q c #7c62a4",
"`r c #6456a4",
"`s c #9492b4",
"`t c #b4b2cc",
"`u c #f4f2f4",
"`v c #34328c",
"`w c #4c4a84",
"`x c #6c6a94",
"`y c #d4d2e4",
"`z c #544a94",
"`A c #1c1a6c",
"`B c #9482b4",
"`C c #443e84",
"`D c #7456a4",
"`E c #242284",
"`F c #342e74",
"`G c #0c0e6c",
"`H c #7c7ab4",
"`I c #341e84",
"`J c #eceaec",
"`K c #5c5a9c",
"`L c #241e7c",
"`M c #645e9c",
"`N c #3c3a8c",
"`O c #8c8aac",
"`P c #444294",
"`Q c #acaac4",
"`R c #14127c",
"`S c #dcdae4",
"`T c #5c4a94",
"`U c #2c2a84",
"`V c #443694",
"`W c #543e8c",
"`X c #bcbad4",
"`Y c #6c6aa4",
"`Z c #342a8c",
"`0 c #4c4294",
"`1 c #7462a4",
"`2 c #644e9c",
"`3 c #5452a4",
"`4 c #7472b4",
"`5 c #3c328c",
"`6 c #3c2a8c",
"`7 c #0c067c",
"`8 c #6c62a4",
".` c #cccadc",
".. c #34327c",
".# c #ece6ec",
".a c #5c4294",
".b c #7c6aac",
".c c #9c9ac4",
".d c #fcfafc",
".e c #4c4a94",
".f c #1c1a7c",
".g c #443e94",
".h c #2c2284",
".i c #0c0a74",
".j c #0c026c",
".k c #44328c",
".l c #2c167c",
".m c #1c126c",
".n c #3c2284",
".o c #5c3a8c",
".p c #6c56a4",
".q c #bcb2d4",
".r c #544aa4",
".s c #948ec4",
".t c #847abc",
".u c #f4eef4",
".v c #241e84",
".w c #6c5e9c",
".x c #8c8abc",
".y c #b4aed4",
".z c #e4daec",
".A c #4c3a94",
".B c #746aa4",
".C c #5c52a4",
".D c #3c369c",
".E c #3c3284",
".F c #2c2294",
".G c #8c82bc",
".H c #2c2a7c",
".I c #aca2cc",
".J c #7c76ac",
".K c #e4e2f4",
".L c #5446a4",
".M c #7c66a4",
".N c #fcf6fc",
".O c #dcd6e4",
".P c #745ea4",
".Q c #140a64",
".R c #eceeec",
".S c #444694",
".T c #acaad4",
".U c #1c127c",
".V c #5c4ea4",
".W c #443a94",
".X c #342e8c",
".Y c #4c4694",
".Z c #6c4e9c",
".0 c #3c3694",
".1 c #6c66a8",
".2 c #4c3e96",
".3 c #2c2687",
".4 c #04026c",
".5 c #2c2274",
".6 c #c4c6dc",
".7 c #4c2e8c",
".8 c #644a9c",
"#` c #241a8c",
"#. c #a492c4",
"## c #c4bedc",
"#a c #5c568c",
"#b c #9c92c4",
"#c c #4c368c",
"#d c #746e9c",
"#e c #9c86bc",
"#f c #7c72b4",
"#g c #d4cee0",
"#h c #140e7c",
"#i c #9c8abc",
"#j c #24227c",
"#k c #4c3e8c",
"#l c #2c1e74",
"#m c #5c3e94",
"#n c #2c1e8c",
"#o c #342694",
"#p c #645eac",
"#q c #846aac",
"#r c #7c5ea4",
"#s c #7476a4",
"#t c #544697",
"#u c #141674",
"#v c #443a84",
"#w c #543a91",
"#x c #645aa7",
"#y c #b4b6d4",
"#z c #f4f6fc",
"#A c #4c4e84",
"#B c #6c6e9c",
"#C c #544e9c",
"#D c #1c1e6c",
"#E c #9486bc",
"#F c #5c5ea4",
"#G c #3c3e94",
"#H c #8c8eb4",
"#I c #dcdeec",
"#J c #5c4e9c",
"#K c #2c2e8c",
"#L c #bcbecc",
"#M c #3c2e91",
"#N c #9c9ec4",
"#O c #4c4e9c",
"#P c #1c1e84",
"#Q c #0c0664",
"#R c #847eb7",
"#S c #8c8ec4",
"#T c #746eac",
"#U c #5c56a5",
"#V c #3c367e",
"#W c #8c86c0",
"#X c #140e6c",
"#Y c #1c1680",
"#Z c #7c76bc",
"#0 c #442e84",
"#1 c #34368c",
"#2 c #d4d6e4",
"#3 c #745aa4",
"#4 c #7c7eb4",
"#5 c #64529c",
"#6 c #5456a4",
"#7 c #5c4694",
"#8 c #fcfefc",
"a` c #2c1a7c",
"a. c #3c2684",
"a# c #6c5aa4",
"aa c #bcb6d4",
"ab c #544ea4",
"ac c #e4deec",
"ad c #aca6cc",
"ae c #e4e6f4",
"af c #acaed4",
"ag c #6c529c",
"ah c #040264",
"ai c #6462ac",
"aj c #c4c2dc",
"ak c #64469c",
"al c #241a84",
"am c #a4a2c4",
"an c #7472ac",
"ao c #e4e2ec",
"ap c #141274",
"aq c #34268c",
"ar c #7c62ac",
"as c #b4b2d4",
"at c #f4f2fc",
"au c #4c4a8c",
"av c #544a9c",
"aw c #1c1a74",
"ax c #eceaf4",
"ay c #5c5aa4",
"az c #645ea4",
"aA c #3c3a94",
"aB c #44429c",
"aC c #acaacc",
"aD c #dcdaec",
"aE c #5c4a9c",
"aF c #2c2a8c",
"aG c #44369c",
"aH c #543e94",
"aI c #6c6aac",
"aJ c #342a94",
"aK c #4c429c",
"aL c #3c3294",
"aM c #6c62ac",
"aN c #343284",
"aO c #ece6f4",
"aP c #9c9acc",
"aQ c #4c4a9c",
"aR c #1c1a84",
"aS c #443e9c",
"aT c #2c228c",
"aU c #443294",
"aV c #1c1274",
"aW c #5c3a94",
"aX c #241e8c",
"aY c #6c5ea4",
"aZ c #8c8ac4",
"a0 c #746aac",
"a1 c #7c66ac",
"a2 c #dcd6ec",
"a3 c #140a6c",
"a4 c #eceef4",
"a5 c #44469c",
"a6 c #443a9c",
"a7 c #342e94",
"a8 c #4c469c",
/* pixels */
"#8#8#8#8#8#8#8#8#8#8.uaa#i#q#r.P#3#r#q#iaa.u#8#8#8#8#8#8#8#8#8#8",
"#8#8#8#8#8#8#8#8.z#eag#3#3`q#3#3#3#3`1a##3#5#E.z#8#8#8#8#8#8#8#8",
"#8#8#8#8#8#8#8#..8.P.P`D.8.a#maH#m`l.a`T.pa#.PaE#b#8#8#8#8#8#8#8",
"#8#8#8#8#8aO#r#3`q.ZaW#w`e.a#7`e.a.a#7.a.A.A#J.Pa#aYaO#8#8#8#8#8",
"#8#8#8#8ac.Z.M#3#waW.8.a.a#7.a.a#7.a`l`l#7`laH.W`r`8#Jac#8#8#8#8",
"#8#8#8ax.8.b.Z`p.8.7`p.8.a#7.a#7`l.a#t`l`l`l#t`l`n#J.1avax#8#8#8",
"#8#8#8`D.M.Z`p.aak.q#w`d`2.a`l.a#t`l`l#t`l`laK#ta8`n.C`8#U#8#8#8",
"#8#8#.#3#3`pak#c.a#8#Ia..naE#t#t#c`l#t`l`la8`0.2.Y.Y.0#U#x.s#8#8",
"#8aO.8.M#w#7#7#caH#8#8ac#0`IaE`l.r`6#taKa8`la8`Z.Wa8`0.0`b.eae#8",
"#8`B`1`2aH#7.aaE.n`T#8#8ax#ka`aU#g#Ralav.Y`5azaC`L.0.Y#G#C#F#R#8",
"at`2.P#w#7.a#7a..IaY.5.N#8#z.Y.ja4#8`8`Za8`oay#8`X.X#G.S.0ayaQat",
"aa#3.p.A.a`l#t.l###8.e.mae#8.d`Y.K#8`s.ma8`E`4#8#8au.3a5.0`g#Uas",
"#Ea#`T`l`l#t`la.###8#8#U#Q.O#8#8#8#8#a`La8al.c#8ax.H#1`P#G`P#U`.",
".baYaH`l`l`l.A.Wax#8#8#8`j``.`#8#8.d`a`UaQ.faf#8.6#D.g.g.gaAayai",
"aYa#.2#t`l#t#M#J#8#8`c#8#8.x```X#8#8#s`7`PaF.6#8`Q#X.g#G.g.0.C#U",
"a##x#k`laK#t.3`8#8#8`f`z#8#8#N``am#8#8`H.4.0aO#8`s.QaB.WaA`v`3.C",
"#x`r.2`0#t.Y.h`H#8#8`C``aI#8#8#y``#H#8#8`M#u#8#8#BapaS#Ga6aL#C`3",
"aY#x#k`0aK.YalaP#8a4`faA`R`Yat#8.`ah`j#8#8aC#8#8`zawaSaA.0.0ab.C",
"a0az`P.Y`0aK`L.y#8`c`L`PaA#Pao#8#8`yah`K#8#8#8#8#V.h.WaA.0aL.Caz",
"#W#x.Y`P`P`P.3.6#8`Q`ma5#Ka8#8#8#8#8.K`Gau#8#8#I`a.X.D`V.0.Wab.t",
"#y#U#U.0.Y`v#G#8#8`s`Ga8aRaI#8.d#B`J#8ataw.E#8#g.Q.D.0.0`ZaQ.r.y",
"`u#Cay`NaB#G.Xas#8#d#uaK.3aQ#8#8``.h.R#8#8`U.e`i#Xa6aL.0#oab.gat",
"#8#R#F#OaAa5.0#haC`x#P`PaBal`b`k#V`7`o#I#8#8#U.i#V.DaL.X.2.C#f#8",
"#8aeaQaz.0.g.S.0`E#V`N.W.WaSaX`N.EaB#Y`h#2#8#8`C#`aUaLaq.C.D.K#8",
"#8#8.s#6`3`v.g`PaAaA.gaAaAaA.W.3.0.0aSal#h`y#8#v.UaGaTaQ.L.G#8#8",
"#8#8#8`3aza8.XaSaA.WaAa6.0`V.0.W.0.0aL.W#``h`t`#aT.F.2.CaK#8#8#8",
"#8#8#8ax`P#pa8.XaAaA.D.0.0.0.0.0aL.0aLaL.W.Fal.EaTa6#UaUae#8#8#8",
"#8#8#8#8#Ia8ayaba7#M.WaA.0.0aL.0aLaLaLaLaLaLaq#n#t.CaGaD#8#8#8#8",
"#8#8#8#8#8.K.C#C#UaS`Z`ZaLaLaLaLaLaLaL#M.Faqa6ab.L.rao#8#8#8#8#8",
"#8#8#8#8#8#8#8aZ.W.Cab#taG#Ma7aJaq`6aJaLaK.r.raL#W#8#8#8#8#8#8#8",
"#8#8#8#8#8#8#8#8a2`HaK.raQab.r#t.L.r.r.LaK.2#Za2#8#8#8#8#8#8#8#8",
"#8#8#8#8#8#8#8#8#8#8a4.y#R#x.r.r.r.r#x.t.Ta4#8#8#8#8#8#8#8#8#8#8"
};
