/* XPM */
static char *bitcoin64_xpm[] = {
/* width height num_colors chars_per_pixel */
"    64    64      256            2",
/* colors */
"`` c #040234",
"`. c #8482ae",
"`# c #444282",
"`a c #242271",
"`b c #646294",
"`c c #c4c2d4",
"`d c #442684",
"`e c #644294",
"`f c #240a74",
"`g c #a4a2c2",
"`h c #846aac",
"`i c #34327a",
"`j c #545684",
"`k c #141261",
"`l c #7472a2",
"`m c #342282",
"`n c #b4b2d4",
"`o c #9492b9",
"`p c #544294",
"`q c #e4e2ec",
"`r c #040262",
"`s c #443690",
"`t c #7462a7",
"`u c #14066c",
"`v c #64529c",
"`w c #24167c",
"`x c #3c3a82",
"`y c #342a78",
"`z c #7456a4",
"`A c #2c2a78",
"`B c #141274",
"`C c #c4b6d4",
"`D c #54368c",
"`E c #341e84",
"`F c #9482bb",
"`G c #d4d4e4",
"`H c #8476b3",
"`I c #0c0b5c",
"`J c #5c5a97",
"`K c #544e8c",
"`L c #241686",
"`M c #4c4a84",
"`N c #b4aacc",
"`O c #7c7ab2",
"`P c #a498c4",
"`Q c #645a9c",
"`R c #242285",
"`S c #34328d",
"`T c #040274",
"`U c #6c6aab",
"`V c #f4f2f5",
"`W c #443e89",
"`X c #342a90",
"`Y c #bcbad2",
"`Z c #746aab",
"`0 c #444295",
"`1 c #acaac4",
"`2 c #947bb4",
"`3 c #54529f",
"`4 c #7472b3",
"`5 c #0c0261",
"`6 c #8c8ab1",
"`7 c #442e8c",
"`8 c #9c9ac1",
".` c #1c1a74",
".. c #847eb6",
".# c #241e87",
".a c #645aaa",
".b c #6463ac",
".c c #cccadf",
".d c #a4a4cc",
".e c #3c3678",
".f c #1c1a67",
".g c #bcb2d1",
".h c #54469e",
".i c #140a60",
".j c #dcdae8",
".k c #2c2274",
".l c #4c368c",
".m c #948eb8",
".n c #544aa0",
".o c #3c2a91",
".p c #4c4295",
".q c #7c72b2",
".r c #8c82bb",
".s c #9c95c4",
".t c #eceaf0",
".u c #241e6c",
".v c #1c1274",
".w c #8c76b4",
".x c #2c228a",
".y c #fcfefc",
".z c #7c6cac",
".A c #5c52a2",
".B c #54328c",
".C c #6c5aa4",
".D c #140c74",
".E c #5c4a9c",
".F c #644a9c",
".G c #341274",
".H c #8472ae",
".I c #1c1260",
".J c #34228c",
".K c #44399c",
".L c #7c65ac",
".M c #6c529c",
".N c #3c3a93",
".O c #3c2a84",
".P c #c4bed8",
".Q c #5c5ba4",
".R c #2c1a8b",
".S c #a49ecc",
".T c #3c3293",
".U c #443e94",
".V c #0c046c",
".W c #24237c",
".X c #241274",
".Y c #aca5c4",
".Z c #343384",
".0 c #9492c4",
".1 c #5c4594",
".2 c #04026c",
".3 c #342e84",
".4 c #543e94",
".5 c #7c7dbc",
".6 c #6c6bb4",
".7 c #fcf6fc",
".8 c #746cb4",
"#` c #4c2f8c",
"#. c #040251",
"## c #745ea4",
"#a c #2c2b8c",
"#b c #4c4a9b",
"#c c #4c468c",
"#d c #6c66a2",
"#e c #ccc6dc",
"#f c #5c5594",
"#g c #2c1e74",
"#h c #4c2a8c",
"#i c #2c1a78",
"#j c #5c3a94",
"#k c #9c86bc",
"#l c #dcd2e4",
"#m c #bcaed4",
"#n c #0c0278",
"#o c #6c62ac",
"#p c #d4cee4",
"#q c #aca6cf",
"#r c #5c469c",
"#s c #e4deec",
"#t c #f4eef4",
"#u c #1c0e6c",
"#v c #c4c6e4",
"#w c #2c0e74",
"#x c #545294",
"#y c #b4b2dc",
"#z c #1c026c",
"#A c #6456ac",
"#B c #847abc",
"#C c #0c0a6c",
"#D c #ac9ac4",
"#E c #bcbbdc",
"#F c #acaad4",
"#G c #1c1b84",
"#H c #3c3484",
"#I c #bcb6dc",
"#J c #948bc4",
"#K c #1c1484",
"#L c #6c4e9c",
"#M c #1c156c",
"#N c #7c72a4",
"#O c #8c7eb4",
"#P c #2c1e8a",
"#Q c #8c72b1",
"#R c #ccbedc",
"#S c #ac9ec9",
"#T c #4c3e98",
"#U c #8482bc",
"#V c #44428c",
"#W c #6462a4",
"#X c #3c1e84",
"#Y c #8c8abc",
"#Z c #241e7c",
"#0 c #241284",
"#1 c #5c3e94",
"#2 c #7c5ea4",
"#3 c #242674",
"#4 c #c4c6dc",
"#5 c #442a8c",
"#6 c #644695",
"#7 c #a4a6c4",
"#8 c #343674",
"a` c #34267c",
"a. c #b4b6d0",
"a# c #9496b8",
"aa c #544694",
"ab c #e4e6ef",
"ac c #04065c",
"ad c #443a94",
"ae c #7466a8",
"af c #6456a4",
"ag c #342e79",
"ah c #c4bad9",
"ai c #543a94",
"aj c #9486bc",
"ak c #847ab4",
"al c #5c5e98",
"am c #241a8a",
"an c #b4aed1",
"ao c #7c7eb4",
"ap c #645e99",
"aq c #242684",
"ar c #6c6ea4",
"as c #f4f6fb",
"at c #342e8d",
"au c #746eac",
"av c #444698",
"aw c #acaecc",
"ax c #5456a4",
"ay c #7476b0",
"az c #0c065e",
"aA c #44328b",
"aB c #9c9ec4",
"aC c #645ea9",
"aD c #cccee0",
"aE c #1c1e6c",
"aF c #bcb6cf",
"aG c #140e62",
"aH c #dcdeeb",
"aI c #2c2677",
"aJ c #4c3a94",
"aK c #544e9f",
"aL c #3c2e93",
"aM c #4c4698",
"aN c #7c76b3",
"aO c #8c86b9",
"aP c #eceef4",
"aQ c #1c1679",
"aR c #8c7ab3",
"aS c #2c2689",
"aT c #5c56a3",
"aU c #6c5ea8",
"aV c #5c4e9f",
"aW c #34268f",
"aX c #6c56a0",
"aY c #3c3e91",
"aZ c #3c3694",
"a0 c #4c4e9c",
"a1 c #dcd6ec",
"a2 c #0c0674",
"a3 c #6c66ae",
"a4 c #240e74",
"a5 c #846eac",
"a6 c #241a7c",
"a7 c #745aa4",
"a8 c #141674",
/* pixels */
".y.y.y.y.y.y.y.y.y.y.y.y.y.y.y.y.y.y.y.y.y.y.y.y`qah#D`Fa5##`z.M.M`z##a5`F#Dah`q.y.y.y.y.y.y.y.y.y.y.y.y.y.y.y.y.y.y.y.y.y.y.y.y",
".y.y.y.y.y.y.y.y.y.y.y.y.y.y.y.y.y.y.y.y.y#l`P.L#6#1.B.Bai#1#1`e.1#1#1#j.B#`#1.1.L`P#l.y.y.y.y.y.y.y.y.y.y.y.y.y.y.y.y.y.y.y.y.y",
".y.y.y.y.y.y.y.y.y.y.y.y.y.y.y.y.y.y`V`N.L`e.B.B`ea7a5a5a5.w.waR.w.w.wa5a5.za7.1#``D.1.L`N#t.y.y.y.y.y.y.y.y.y.y.y.y.y.y.y.y.y.y",
".y.y.y.y.y.y.y.y.y.y.y.y.y.y.y.y`V#S.M#j.B#r.L#QaRa5`h.L.M.F`e.1.1`e.EaX#2.za5aR.H.L#r`7ai`v#S`V.y.y.y.y.y.y.y.y.y.y.y.y.y.y.y.y",
".y.y.y.y.y.y.y.y.y.y.y.y.y.y.y.g`z#j.B.M.w.wa5a7#1`D#``D#1.1.1`e.1.1#1.1.l#`.l.4.C.z`H`HaX`7aJaXan.y.y.y.y.y.y.y.y.y.y.y.y.y.y.y",
".y.y.y.y.y.y.y.y.y.y.y.y.y#s#Q`e#`.M.w.w###j#`#1#6#6#6#6#6.1`e#r.1.1.1.1.1#r.1.1.4`7aiaU`H`H`v`7`p.H#s.y.y.y.y.y.y.y.y.y.y.y.y.y",
".y.y.y.y.y.y.y.y.y.y.y.y`C#L`D#j.H`2a7.B`D#6#6.1.1.1`e#r.1`e#r.1#1#r.1#r.1.1#r.1.1.1.1#`aA.CaR.zaJ`s.EaF.y.y.y.y.y.y.y.y.y.y.y.y",
".y.y.y.y.y.y.y.y.y.y.y#D#6#`.M`F.L.B`D#6#6#r`e`e`e#r.1.1#r.1.1.1.1.1#1.1.1.1`p.1`p`p`p.1aa.laAae.r`v`7.h`P.y.y.y.y.y.y.y.y.y.y.y",
".y.y.y.y.y.y.y.y.y.y#k.1#``h`F#6.B#6#6#r`e.1#6#r.1`e#r.1`e#r#1#r.1#r.1#r.4#r.4#r`p#r`p`p.h`p.h`7`p.r`ZaL`p.r.y.y.y.y.y.y.y.y.y.y",
".y.y.y.y.y.y.y.y.y`2#1.BaR.w.B#j#6#r`e.1#6#r.1`e.1.1.1.1.1.1.1.1#1.1.4.1`p.1`p.1`p`p`p`p`p`p`p.naJaA.qakaA#Tak.y.y.y.y.y.y.y.y.y",
".y.y.y.y.y.y.y.y`F.1.B`Fa5#``e.1.1#6ai.1`e.1.1#r.1#r#1#r#1#r.1#r`p#r`p#r`p`p`p`p`p`p.h`p.h`p`p`paM`p`y.8.r.T#T.r.y.y.y.y.y.y.y.y",
".y.y.y.y.y.y.y#D`e.B`F.L#h#6.1#6#r#6#1#`#r`e#r.1.1.1.1.1.1.1.4.1.4.1.4`p#r`p`p#r`p`p`p`p`p.h.p`p.p.h.h`y#o`..T.p.s.y.y.y.y.y.y.y",
".y.y.y.y.y.yah#6#``2a5#h.F`e.1`e.1#`.PaR.G#r.1.1#r#1#r`p#r.4#r`p#r`p`p`p`p`p`p`p`p.h`p.h.p`paM`p.p.p.p.h`Xauak.3aM#E.y.y.y.y.y.y",
".y.y.y.y.y.t#6#``h`H#h#6.1.1`e#r.1`d.j.yae#w#r.1.1`p.1#1`p.1`p`p`p`p#r`p`p`p`p.h`p`p.p`paM`p.paM`paM.paMaM`yaN`Z`XaM.t.y.y.y.y.y",
".y.y.y.y.y`h`D.M#k#`.1#6.1.1#r.1ai.Ba1.y.y.Ha4.1#r.1`p`p#r`p`p#r`p`p`p`p`p.h`p`p.p.h.p`p.p.h.p.p.p.p.p.p.p.pataO.A`S`U.y.y.y.y.y",
".y.y.y.y.g`eai#k#r#j.1.1`e#r.1.1.l#ras.y.y.yaR`fai#r`p#r`p`p`p`p`p`p`p.h`p`p.p.h.p`paM`p.p.paM.paM.paM.p.paMad`0aOaZ.p`n.y.y.y.y",
".y.y.y.7#L#`.w.L#`#6.1#r.1.1.1#r#5aX.y.y.y.y.y.m`faJ.E.4`p`p`p.E`saL.E.p`paM`p.p.p`p.paMaM#T`W.h.p.p.p.p`0.paM`X#day#a.nas.y.y.y",
".y.y.y#Sai.M#O#`.F.1.1.1.1#1#r.1#`.1.y.y.y.y.y.y.Y`f`s.E`p`p.h`7.q.z#iaK.p`p.p.h.paM.p.p.paK.T`S.n`0.p`0.p`0`0aMat.5aK.N`8.y.y.y",
".y.y.7.F#`aR##`D.1.1#r#1#r.1.1`p#r#X`v.y.y.y.y.y.y.g.X`7.E`p.h#i.S.y.p#i.n.p.p.p.p.p.paM.TaC.c.3a`.n`0.p`0.p`0av`S.Q`O#a#bas.y.y",
".y.y`NaiaXaR#`.1#r.1.1.1.1.4#r`p.1`p#z.4.t.y.y.y.y.y#e#i`yaVaa.R`g.y`Vada6.naM.paM.paMaMaSaT.ya1.W`R.n`0`0`0`0`0aM#a`O`3aZ.d.y.y",
".y.y###`.w`t.l.1.1.1`p#r.4.1`p.4.4`G`Z`raA#s.y.y.y.y.y`G`m`maK#P`Y.y.y`V`W.O#b.p.p.p.p.p.xaN.y.y.jaIaq#b`0`0`0`0`0`S.Qay#a.Q.y.y",
".ya1.1.1aRai.1#r`p#r.4.1`p`p#raA`p.y.yaf#.a`a1.y.y.y.y.yaH`y#i`s`G.y.y.y`V#HaZ.p.p.p`0aMa6`8.y.y.y`q`0`S`0`0`0`0`0`0.NaN`0.U`G.y",
".y`P#`.z.z`7.1.1`p.1`p`p#r`p#r.Oaf.y.y.y`Z`5#i.c.y.y.y.y.y.taS`was.y.y.y`q`y#H.p`0.p.p`0.#an.y.y.y.y`laQav`0`0`0`0`0#a.6a3#a.0.y",
".y`t#``H.Caiaa#r.4#r`p`p`p`p.h`m.H.y.y.y.y`H`ra4aF.y.y.y.y.y.t#d`V.y.y.y`Y`k`x.p.p`0`0`0aS#v.y.y.y.y`#aE`0`0`0`0aY`0aZax`4at.Q.y",
"`q#r`paRaiaa.1`p.1`p`p`p`p`p#r#i`P.y.y.y.y.y.r`r`u.Y.y.y.y.y.y.y.y.y.y.y.Y`I`W`0`0.p`0.NaY.t.y.y.y.7#8aI`0`0aY`0.U.U.U.Nay.N.U`q",
".Pai.C.z.l`p#r.4`p`p`p.h`p`p.h`E`n.y.y.y.y.y.y`o`u.V`o.y.y.y.y.y.y.y.y.y`6aG`W`0`0`0avat#b.y.y.y.y`GaE`iaY.U`0.UaY`0aYat.6aTaZ#E",
"`PaA.z.z`7.h`p`p.h`p`p`p.h`p.p.o#p.y.y.y.y.y.y.y.Y`u.2#O.y.y.y.y.y.y.y.y#d`k`Wav.p`0`0aqaC.y.y.y.y`naG`x.U`0.UaY.UaY.U#aa3a3aS.0",
"#O#`.zae.l`p`p`p`p.h`p`p`p.h`s.p`V.y.y.y.y.y.y.y.yaF.v`raN.y.y.y.y.y.y.y`i.f#V`0`0`0av.#.5.y.y.y.y`gaz`xaY.UaY.U.U.U.Uat.Qa3#a`O",
".zaJ.q`v#T`p.h`p`p`p.h.p`paM.O.A.y.y.y.y`V.y.y.y.y.y.c.u`r#d.y.y.y.y.y.y`l#.`0av`0`0`0#G.S.y.y.y.y`.`IaY.UaY.UaY.UaY.NaZaK.6at#o",
"aU#T`H.h`p`p`paa`p.p`paM`paM`mau.y.y.y.y#7`j.y.y.y.y.y`GaS`r#f.7.y.y.y.y.y`la2`0av`0`0#G#y.y.y.y.yalaGaY.U.U.U.N.KaY.K.N.U.8aZax",
"af.4.qaa`p.p`p.p.h.p`p.p.p.h#g#J.y.y.y.y`1```b.y.y.y.y.yaH.Z`r#VaP.y.y.y.y.yaya2`0`0aY#a#p.y.y.y.y`##M`W.UaY.KaY.U.N.K.N.K.6aZaK",
".A.4`H.p`p`p.h.p`paM.p.h.paM.##q.y.y.y.y`6aG`uap.y.y.y.y.yab#V`r.Z#s.y.y.y.y.yay.V`0.TaY`V.y.y.yasag#3.N.U.N.U.N.KaY.N.NaZ`4aZaM",
".A`paN`p.p.p`p.p.p`p.p.p.paM#P`Y.y.y.y.y#d.IaM.D`J.y.y.y.y.yas#x`r#3a1.y.y.y.y.yaya2aqaK.y.y.y.yaD.fagadaY.K.N.U.N.K.N.KaZ`4aZaM",
"af#T.qaM.p.paM`paM.paM.p.p.U.3#p.y.y.y.y#c.f#V#b.D`J.y.y.y.y.y.yaC`r.`aD.y.y.y.y.y`O`raC.y.y.y.yanaz#HaY.KaY.K.N.N.KaZaZ.K.6.T.n",
"`Q#TaNaa.p`p.p.p.p.p.paM.paZ`0`V.y.y.y.y.eaI`0av#b.Dax.y.y.y.y.y.y`4`r`B`Y.y.y.y.y.y`J.Q.y.y.y.y`8#..Nad.N.N.N.K.N.N.KaZ.U.8`S.A",
"`Zad.z.A#T.paM.paM.p.p.paM`XaK.y.y.y.y`G`a`i`0`0`0#b`B#x.t.y.y.y.y.yao`r.2`1.y.y.y.y.yab.y.y.y.y#N`I#HaY.K.N.K.N.KaZaZ.TaMa3`XaC",
"...Tau#daZaM.p.p.p.p`0.paM.x#W.y.y.y.yaF`k`x`0`0`0`0`0.D#v.y.y.y.y.y.y#Y.2.2a#.y.y.y.y.y.y.y.y.y`KaG.N.K.N.KaZaZaZaZ.K#aaT#o.xaN",
"`P.T`Z`Z.OaMaM`0.p`0.p`0aM.#...y.y.y.y`g`I`x`0`0`0`0`S`0as.y.y.y.y.y.y.yaB.2.2`..y.y.y.y.y.y.y.y`x#M.NadaZaZ.N.KaZ.N`s.xaC.b.x.0",
"#E`W.Q`4aZ.p.p.p`0.p`0`0.p.`aB.y.y.y.y`.`IaY`0aY`0`0aSa0.y.y.y.y.y.y.y.y.yana2`ray.y.y.y.y.y.y.taI.kaZaZ.N`saZaZ`saZaZaSa3aK`X#I",
"`q.p#TaN`W`0`0`0.p`0`0.pav.##y.y.y.y.y`J`k#V`0`0aY`0.#.b.y.y.y.y.y.y.y.y.y.y`c.D`r#d.y.y.y.y.y.PaGagaZadaZaZaZaZaZaZaZaL.8.T.T`q",
".y.b`S.qaT.N.p`0`0`0`0`0.Uaq.c.y.y.y.y`#.f.U`0.U.U`0#G...y.y.y.y`o`c.y.y.y.y.y`G.``r.A.y.y.y.y.Y`r#HaZaZaZ`saZaZaZ.K`X.n.6.x.A.y",
".y.sata3`4`yav.p`0`0`0av`Sav.y.y.y.y`V`i`AaY`0aY.U.U#K#F.y.y.y.y`##.`G.y.y.y.y.y.jaS`r#V#t.y.y`6#..TaZaZaZaZaZaZ.TaZam#o.a#P#Y.y",
".y`G`0aMay.N`0`0`0`0`0`0.Nat.j.y.y.yaD.f`i.U.U.UaY.U#K#E.y.y.y.y`K#..v.c.y.y.y.y.y`q#H`r.Zab.yapaz.TaZ`saZaZ.T`s.TaZ`X.8aZ.T#p.y",
".y.y.a#aaN.Q`Sav`0`0`0`0`0`S#G.c.y.yan`I#HaY.UaY.UaY`Sat.j.y.y.y`i`a`R.DaF.y.y.y.y.y`VaM`r.3.j`JaGaZaZaZ.T.TaZ.T.T.x.A.8`LaK.y.y",
".y.y`1aZax`Oatav`0`0`0`0aY#b#a.Da..y`8ac`x.U.U.U.N.K`0.#am.j.ya1.uaI#TaS.2`g.y.y.y.y.y.y.A`r#H`W.k.T`s.TaZ.T.T.T.Kam.8aMaW.S.y.y",
".y.yas#b#a`O.Q`S`0.UaY`0.U.Uavat#C.c`o`I.N.U.N.UaY.K.NaM#G.`.t.jaz`iaZ.U`X`T.m.y.y.y.y.y.y#d`T.3#H.TaZ.T.TaZ.T.T.x.n.8am.Kas.y.y",
".y.y.y`8.Na0.5#a`0.U`0.UaY.UaY.pat#a`#`y`x.UaY.K.N.U.N.N.p#GaM`6#M#H.NaZ.UaL.2`O.y.y.y.y.y.y#d#K.T.T.T.T.T.T.TaZ.R.q#TaW.0.y.y.y",
".y.y.yas#b#a`4.b#a`0.UaY.U.UaY.U`0aZ#a`xaZ.U.N.K.N.N.K.NaZ.paS#Z`i.Z.KaZ.Kad.T.2ar.y.y.y.y.y.m`5aZ.T.T.T.T.TaZ`L.Qa3`L.Kas.y.y.y",
".y.y.y.y`n.NaZ#U.UaZ.UaY.UaY.UaY.KaY.Uad.N.K.N.K.N.K.N.KaZaZ.NaZaZaZaZaZaZaZaZ.K.2ap.y.y.y.y`J`5.T.T.T.T.T.TaW.T#B.xaL#F.y.y.y.y",
".y.y.y.y.ya3at`3..#aaY.U.U.U.N.U.N.KaY.KaYad.N.N.K.NaZ.N.N.KaZ.KaZ`saZaZaZaZ.TaZ.K`T#b.y.y.y`K`u.T.T.T.T.TaLamaN.p#P.a.y.y.y.y.y",
".y.y.y.y.yab`0aS.b`4.x`0.N.N.U.N.U.N.K.N.K.N.K.N.NaZ.KaZaZaZaZaZaZaZaZaAaZ.T`s.T.T.K.VaZ.y.yagaG.T.TaLaL.T#K.8.a#0.Tab.y.y.y.y.y",
".y.y.y.y.y.y#I`0aSay.b`R.U.K.N.K.N.K.N.N.N.NaZ.KaZaZaZ.KaZ.KaZaZaZaZaZ.TaZ.T.TaZ.T.T.K#n`W#s`W.X.T.TaLaZ#0.a.8`L.T#y.y.y.y.y.y.y",
".y.y.y.y.y.y.y.0.N`X.5.a`R.UaY.N.K.N.K.N.KaZadaZ.N.KaZaZaZaZaZaZaA.TaZ.T.TaZ.T.T.T.T.T.K#K`y.eaIaLaL.T#K.AaNam`X#J.y.y.y.y.y.y.y",
".y.y.y.y.y.y.y.y..aZ#a...b`R.K.K.N.NaZ.KaZaZaZaZ`saZaZaZaZ.T`s.TaZaZ.T.T.T.T.T.T.T.T.TaL.K#P.x.3.TaL#K.a.qamaW.q.y.y.y.y.y.y.y.y",
".y.y.y.y.y.y.y.y.yaN.TaS.q.8aSat.UaZ.NaZaZadaZaZaZaZ.T`saZ.TaZ.T.T.TaZ.T.T.T.T.T.TaL.TaLat.TaL.T.Jam#o.8amaW.8.y.y.y.y.y.y.y.y.y",
".y.y.y.y.y.y.y.y.y.y.5aZ.x.b.5aZ.x.K.KaZaZaZaZ.K.TaZaZ.TaZ.T.TaZ.T.T.T.T.T.TaLaL.TataL.TaLaL.T`LaLaN.a`L`X.q.y.y.y.y.y.y.y.y.y.y",
".y.y.y.y.y.y.y.y.y.y.y.0.N.#.h.5#A`R`X.KaZaZ.TaZ.TaZ.TaZ.T.T.T.T.T.T.T.TaL.T.TaLaL.TataL.T#P.RaT.q#T`LaL#J.y.y.y.y.y.y.y.y.y.y.y",
".y.y.y.y.y.y.y.y.y.y.y.y#y.UaSata3`4aK.#aWaZ`s.T.T.T.T.TaZ.T.T.T.T.TaL.TaL.TataLat.TaL#PamaM.8#o.x.RaZ#F.y.y.y.y.y.y.y.y.y.y.y.y",
".y.y.y.y.y.y.y.y.y.y.y.y.y#s.6.T#P.p.8.8.A`X.#`XaZ.K.T.T.T.T.T.TaL.TaL.Tat.TaLaLaW`LaWaK.8#o.K`L`X#o.j.y.y.y.y.y.y.y.y.y.y.y.y.y",
".y.y.y.y.y.y.y.y.y.y.y.y.y.y.y#F.n`X.#aM.6a3#o.n`X.x#PaS.oataLaLaLatat`X#Pam#PaWaM.a.6#o#Tam.J#T#F.y.y.y.y.y.y.y.y.y.y.y.y.y.y.y",
".y.y.y.y.y.y.y.y.y.y.y.y.y.y.y.yaP.s.p`X.#.KaT#o.8aC.a.A.p.KaLatataL.K#T.A.aaC.6#o.AaL`L#P.K.s.t.y.y.y.y.y.y.y.y.y.y.y.y.y.y.y.y",
".y.y.y.y.y.y.y.y.y.y.y.y.y.y.y.y.y.yaP.SaTaL#P.xaL.naCaC#oa3#o.8.8#o#o#o.a.a.haW.R.R`X.A.S#t.y.y.y.y.y.y.y.y.y.y.y.y.y.y.y.y.y.y",
".y.y.y.y.y.y.y.y.y.y.y.y.y.y.y.y.y.y.y.y.y.c#J.A.TaWam.R.x`X`X`X.o`XaW.xamam.J`XaV#Y#v.y.y.y.y.y.y.y.y.y.y.y.y.y.y.y.y.y.y.y.y.y",
".y.y.y.y.y.y.y.y.y.y.y.y.y.y.y.y.y.y.y.y.y.y.y.y`q#y.0aN.a.n.p#T.K.p.n#A.q#J#y#s.y.y.y.y.y.y.y.y.y.y.y.y.y.y.y.y.y.y.y.y.y.y.y.y"
};
